<?xml version="1.0" standalone="no"?>
<!DOCTYPE svg PUBLIC "-//W3C//DTD SVG 20010904//EN"
 "http://www.w3.org/TR/2001/REC-SVG-20010904/DTD/svg10.dtd">
<svg version="1.0" xmlns="http://www.w3.org/2000/svg"
 width="60.000000pt" height="60.000000pt" viewBox="0 0 60.000000 60.000000"
 preserveAspectRatio="xMidYMid meet">

<g transform="translate(0.000000,60.000000) scale(0.100000,-0.100000)"
fill="#000000" stroke="none">
<path d="M385 550 c-22 -10 -62 -19 -90 -19 -60 -1 -115 -27 -132 -61 -21 -42
-16 -95 12 -128 22 -27 23 -31 9 -43 -12 -9 -15 -24 -11 -50 4 -29 0 -42 -14
-55 -26 -23 -26 -87 0 -113 65 -65 258 -45 296 30 21 39 19 64 -7 94 -19 21
-37 28 -98 36 -117 17 -122 18 -118 37 2 13 16 17 59 18 95 3 139 39 138 114
0 25 -6 54 -14 64 -20 26 -19 36 3 36 30 0 45 16 37 39 -8 25 -17 25 -70 1z
m-31 -92 c19 -27 21 -68 3 -92 -7 -9 -31 -20 -52 -23 -75 -10 -120 56 -79 115
22 32 106 32 128 0z m23 -279 c16 -6 23 -17 23 -34 0 -36 -56 -59 -124 -52
-74 7 -100 47 -62 95 7 11 26 12 75 7 36 -4 75 -11 88 -16z"/>
</g>
</svg>
